<svg width="539" height="86" viewBox="0 0 539 86" fill="none" xmlns="http://www.w3.org/2000/svg">
<path fill-rule="evenodd" clip-rule="evenodd" d="M76.7867 62.4886C78.0043 61.8027 78.4203 60.2832 77.718 59.0941C77.0157 57.9063 75.4598 57.4987 74.2423 58.1846L41.0153 76.9201L7.91051 58.2542C6.69425 57.5683 5.13831 57.9746 4.43476 59.1637C3.73249 60.3527 4.14978 61.8723 5.36604 62.5582L39.6464 81.8864C40.2698 82.2392 40.9835 82.3026 41.6247 82.1224C41.9275 82.0765 42.2265 81.9758 42.5076 81.818L76.7867 62.4886Z" fill="white"/>
<path fill-rule="evenodd" clip-rule="evenodd" d="M80.2247 42.6391C80.3896 41.5966 79.8964 40.5144 78.9018 39.9563L42.6621 19.6211C42.3689 19.4569 42.0568 19.3519 41.7421 19.3033C41.0642 19.1115 40.311 19.1798 39.6506 19.5502L3.40954 39.8854C2.34995 40.4806 1.85973 41.6718 2.12962 42.7746C2.02188 43.674 2.37891 44.6123 3.42843 45.2042L39.6681 65.6379C40.3285 66.0097 41.0831 66.078 41.7609 65.8862C42.0811 65.8389 42.3958 65.7325 42.693 65.5657L78.9341 45.1307C80.0077 44.5252 80.3567 43.5572 80.2247 42.6391ZM72.7449 42.5536L41.0925 24.7926L9.4643 42.5406L41.1167 60.3876L72.7449 42.5536Z" fill="white"/>
<path fill-rule="evenodd" clip-rule="evenodd" d="M80.7801 27.2436C82.1323 26.4819 82.5958 24.7943 81.8144 23.4737C81.0345 22.1545 79.3065 21.7019 77.9543 22.4636L41.0529 43.271L4.2886 22.5409C2.93643 21.7778 1.20842 22.2304 0.428487 23.551C-0.35286 24.8701 0.110579 26.5591 1.46275 27.3208L39.5326 48.7864C40.2264 49.1769 41.0176 49.2487 41.7311 49.0472C42.066 48.9975 42.398 48.8858 42.7103 48.7105L80.7801 27.2436Z" fill="white"/>
<path d="M7.05859 24.8623L40.9686 4.16406L74.8785 24.8609L40.9686 44.1807L7.05859 24.8623Z" fill="white"/>
<path fill-rule="evenodd" clip-rule="evenodd" d="M80.7259 21.8053C82.0809 22.5657 82.55 24.2519 81.7743 25.5724C80.9972 26.8916 79.2692 27.3456 77.9142 26.5853L41.0072 5.87587L4.23436 26.5108C2.87936 27.2711 1.15135 26.8171 0.374244 25.4979C-0.401452 24.1774 0.0676396 22.4911 1.42122 21.7308L39.4925 0.368716C40.1863 -0.0204136 40.9775 -0.092168 41.6896 0.109296C42.0202 0.160352 42.348 0.270744 42.6561 0.44323L80.7259 21.8053Z" fill="white"/>
<rect x="108.707" y="16.1016" width="1.55082" height="53.0118" fill="white"/>
<path d="M169.595 21.1121H143.655V37.1338H169.366V43.5424H143.655V63.9891H169.366V70.474H137.094V14.6272H169.595V21.1121Z" fill="white"/>
<path d="M194.858 20.7307C192.417 19.7134 190.509 19.2048 189.136 19.2048C187.763 19.2048 186.873 19.6626 186.466 20.5781C186.059 21.4427 185.855 22.9177 185.855 25.0031V28.8941H194.324V34.3872H185.855V70.474H179.523V34.3872H174.259V28.8941H179.523V24.1639C179.523 20.4001 180.21 17.6535 181.583 15.9242C183.007 14.144 185.22 13.2539 188.22 13.2539C189.848 13.2539 192.06 13.6354 194.858 14.3983V20.7307Z" fill="white"/>
<path d="M218.849 20.7307C216.407 19.7134 214.5 19.2048 213.127 19.2048C211.753 19.2048 210.863 19.6626 210.456 20.5781C210.049 21.4427 209.846 22.9177 209.846 25.0031V28.8941H218.315V34.3872H209.846V70.474H203.514V34.3872H198.249V28.8941H203.514V24.1639C203.514 20.4001 204.2 17.6535 205.574 15.9242C206.998 14.144 209.21 13.2539 212.211 13.2539C213.839 13.2539 216.051 13.6354 218.849 14.3983V20.7307Z" fill="white"/>
<path d="M266.032 50.7903H229.564C229.819 55.3679 231.344 59.0554 234.142 61.8528C236.99 64.5994 240.372 65.9727 244.289 65.9727C250.952 65.9727 256.038 62.6921 259.547 56.1308L264.888 58.8774C262.497 63.3024 259.675 66.583 256.419 68.7193C253.164 70.8046 249.273 71.8473 244.747 71.8473C238.491 71.8473 233.328 69.7111 229.259 65.4386C225.19 61.1153 223.156 55.9274 223.156 49.8748C223.156 43.8222 225.19 38.6342 229.259 34.3109C233.379 29.9876 238.465 27.826 244.518 27.826C250.57 27.826 255.631 29.8859 259.7 34.0057C263.769 38.0747 265.88 43.6696 266.032 50.7903ZM259.013 45.2209C258.25 41.6605 256.521 38.8885 253.825 36.9049C251.13 34.9213 248.027 33.9294 244.518 33.9294C237.397 33.9294 232.667 37.6932 230.327 45.2209H259.013Z" fill="white"/>
<path d="M315.348 62.0054C313.161 65.2098 310.287 67.6511 306.726 69.3296C303.217 71.0081 299.402 71.8473 295.282 71.8473C288.874 71.8473 283.508 69.7365 279.185 65.5149C274.912 61.2934 272.776 56.1308 272.776 50.0274C272.776 43.9239 274.938 38.7105 279.261 34.3872C283.584 30.013 289.179 27.826 296.045 27.826C300.114 27.826 303.853 28.716 307.261 30.4962C310.719 32.2764 313.415 34.7687 315.348 37.973L310.389 41.101C306.676 36.2691 301.818 33.8531 295.817 33.8531C291.086 33.8531 287.119 35.379 283.915 38.4307C280.71 41.4316 279.108 45.17 279.108 49.6459C279.108 54.1218 280.685 57.9619 283.839 61.1662C286.992 64.3705 290.985 65.9727 295.817 65.9727C301.615 65.9727 306.498 63.5313 310.465 58.6485L315.348 62.0054Z" fill="white"/>
<path d="M343.23 34.3872H334.99V63.5313C334.99 64.5994 335.143 65.2606 335.448 65.5149C335.753 65.7184 336.516 65.8201 337.737 65.8201H341.399V71.2369C338.957 71.6438 337.101 71.8473 335.829 71.8473C333.388 71.8473 331.582 71.2624 330.413 70.0925C329.243 68.8718 328.658 66.9645 328.658 64.3705V34.3872H321.486V28.8941H328.658V13.2539H334.99V28.8941H343.23V34.3872Z" fill="white"/>
<path fill-rule="evenodd" clip-rule="evenodd" d="M169.942 21.4344H144.003V36.7705H169.713V43.8647H144.003V63.6257H169.713V70.7962H136.756V14.2639H169.942V21.4344ZM143.66 63.9685V43.5219H169.371V37.1132H143.66V21.0916H169.6V14.6067H137.099V70.4535H169.371V63.9685H143.66ZM195.206 21.2243L194.731 21.0266C192.3 20.0136 190.444 19.5271 189.141 19.5271C187.844 19.5271 187.115 19.9515 186.784 20.6968L186.782 20.7002L186.781 20.7035C186.409 21.494 186.203 22.9018 186.203 24.9826V28.5308H194.672V34.7095H186.203V70.7962H179.185V34.7095H173.921V28.5308H179.185V24.1434C179.185 20.3516 179.874 17.5103 181.319 15.6905L181.32 15.6895C182.829 13.8039 185.156 12.8906 188.225 12.8906C189.898 12.8906 192.145 13.2814 194.953 14.0471L195.206 14.116V21.2243ZM179.528 28.8736H174.264V34.3667H179.528V70.4535H185.86V34.3667H194.329V28.8736H185.86V24.9826C185.86 22.8972 186.064 21.4222 186.471 20.5576C186.877 19.6421 187.768 19.1843 189.141 19.1843C190.449 19.1843 192.242 19.646 194.52 20.5693C194.633 20.6151 194.747 20.6621 194.863 20.7102V14.3778C192.065 13.6149 189.853 13.2334 188.225 13.2334C185.224 13.2334 183.012 14.1235 181.588 15.9037C180.214 17.633 179.528 20.3796 179.528 24.1434V28.8736ZM219.196 21.2243L218.722 21.0266C216.291 20.0136 214.435 19.5271 213.131 19.5271C211.834 19.5271 211.106 19.9515 210.774 20.6968L210.773 20.7002L210.771 20.7035C210.399 21.494 210.194 22.9018 210.194 24.9826V28.5308H218.662V34.7095H210.194V70.7962H203.176V34.7095H197.911V28.5308H203.176V24.1434C203.176 20.3516 203.865 17.5103 205.31 15.6905L205.311 15.6895C206.819 13.8039 209.146 12.8906 212.216 12.8906C213.889 12.8906 216.136 13.2814 218.944 14.0471L219.196 14.116V21.2243ZM203.518 28.8736H198.254V34.3667H203.518V70.4535H209.851V34.3667H218.319V28.8736H209.851V24.9826C209.851 22.8972 210.054 21.4222 210.461 20.5576C210.868 19.6421 211.758 19.1843 213.131 19.1843C214.44 19.1843 216.233 19.646 218.511 20.5693C218.624 20.6151 218.738 20.6621 218.853 20.7102V14.3778C216.056 13.6149 213.844 13.2334 212.216 13.2334C209.215 13.2334 207.003 14.1235 205.578 15.9037C204.205 17.633 203.518 20.3796 203.518 24.1434V28.8736ZM266.387 51.1126H229.934C230.243 55.4504 231.733 58.9329 234.387 61.5877C237.171 64.2719 240.468 65.6094 244.294 65.6094C247.566 65.6094 250.438 64.8046 252.92 63.2036C255.404 61.6013 257.517 59.1896 259.25 55.9486L259.409 55.6512L265.361 58.712L265.194 59.0198C262.785 63.4806 259.927 66.8101 256.612 68.9853L256.609 68.9874C253.29 71.1138 249.332 72.1695 244.751 72.1695C238.408 72.1695 233.154 69.9993 229.016 65.6545L229.014 65.653C224.884 61.2648 222.818 55.9923 222.818 49.8542C222.818 43.7162 224.884 38.4437 229.014 34.0555L229.016 34.0539C233.201 29.6617 238.378 27.4627 244.523 27.4627C250.662 27.4627 255.812 29.556 259.949 33.7441C264.093 37.8895 266.226 43.5762 266.38 50.7624L266.387 51.1126ZM259.705 33.9852C255.636 29.8654 250.575 27.8055 244.523 27.8055C238.47 27.8055 233.384 29.9671 229.264 34.2904C225.195 38.6137 223.16 43.8016 223.16 49.8542C223.16 55.9068 225.195 61.0948 229.264 65.4181C233.333 69.6905 238.495 71.8267 244.751 71.8267C249.278 71.8267 253.169 70.7841 256.424 68.6987C259.605 66.6112 262.373 63.4309 264.729 59.1579C264.784 59.0581 264.838 58.9578 264.893 58.8569L259.552 56.1103C256.043 62.6715 250.957 65.9521 244.294 65.9521C240.377 65.9521 236.995 64.5789 234.147 61.8323C231.419 59.105 229.901 55.5318 229.591 51.1126C229.583 50.9988 229.575 50.8846 229.569 50.7698H266.037C266.035 50.6551 266.032 50.5408 266.028 50.427C265.816 43.4693 263.708 37.9887 259.705 33.9852ZM315.828 61.896L315.636 62.1781C313.414 65.4335 310.493 67.9148 306.878 69.6188C303.32 71.3203 299.455 72.1695 295.287 72.1695C288.795 72.1695 283.341 70.0278 278.95 65.7396L278.949 65.7382C274.61 61.4511 272.438 56.2003 272.438 50.0068C272.438 43.8126 274.636 38.5122 279.023 34.1249C283.418 29.6782 289.104 27.4627 296.05 27.4627C300.171 27.4627 303.964 28.3645 307.423 30.1714C310.936 31.9794 313.679 34.5148 315.646 37.7754L315.82 38.0631L310.312 41.5371L310.122 41.2894C306.472 36.5404 301.715 34.1754 295.821 34.1754C291.173 34.1754 287.292 35.6719 284.156 38.6585L284.154 38.6604C281.02 41.5951 279.456 45.2422 279.456 49.6254C279.456 54.0108 280.997 57.7647 284.088 60.9052C287.172 64.0388 291.074 65.6094 295.821 65.6094C301.507 65.6094 306.295 63.2223 310.204 58.4118L310.403 58.1663L315.828 61.896ZM307.265 30.4757C303.858 28.6955 300.119 27.8055 296.05 27.8055C289.184 27.8055 283.589 29.9925 279.266 34.3667C274.943 38.69 272.781 43.9034 272.781 50.0068C272.781 56.1103 274.917 61.2728 279.189 65.4944C283.513 69.716 288.879 71.8267 295.287 71.8267C299.407 71.8267 303.222 70.9875 306.731 69.3091C310.187 67.6801 312.995 65.3326 315.157 62.2665C315.194 62.2148 315.23 62.1629 315.266 62.1108C315.295 62.069 315.324 62.027 315.352 61.9849L310.47 58.628C306.502 63.5108 301.62 65.9521 295.821 65.9521C290.99 65.9521 286.997 64.35 283.843 61.1457C280.69 57.9413 279.113 54.1012 279.113 49.6254C279.113 45.1495 280.715 41.4111 283.92 38.4102C287.124 35.3585 291.091 33.8326 295.821 33.8326C301.823 33.8326 306.68 36.2486 310.393 41.0805L315.352 37.9525C313.42 34.7481 310.724 32.2559 307.265 30.4757ZM343.577 34.7095H335.338V63.5108C335.338 64.0319 335.375 64.4355 335.443 64.7307C335.509 65.0153 335.594 65.1566 335.659 65.2192C335.75 65.2726 335.947 65.3365 336.299 65.3835C336.66 65.4315 337.139 65.4568 337.742 65.4568H341.746V71.5068L341.46 71.5545C339.014 71.9622 337.135 72.1695 335.834 72.1695C333.345 72.1695 331.434 71.5736 330.175 70.3144L330.172 70.3118L330.17 70.3092C328.913 68.9978 328.32 66.9864 328.32 64.35V34.7095H321.148V28.5308H328.32V12.8906H335.338V28.5308H343.577V34.7095ZM334.995 28.8736V13.2334H328.663V28.8736H321.491V34.3667H328.663V64.35C328.663 66.944 329.248 68.8513 330.417 70.072C331.587 71.2418 333.393 71.8267 335.834 71.8267C337.106 71.8267 338.962 71.6233 341.404 71.2164V65.7996H337.742C336.521 65.7996 335.758 65.6978 335.453 65.4944C335.148 65.2401 334.995 64.5789 334.995 63.5108V34.3667H343.235V28.8736H334.995ZM258.589 44.8576C257.8 41.5715 256.144 39.0127 253.627 37.1605C250.993 35.2223 247.963 34.2517 244.523 34.2517C241.025 34.2517 238.142 35.1746 235.848 37C233.643 38.7542 231.956 41.3637 230.802 44.8576H258.589ZM258.941 44.8576C258.143 41.4616 256.439 38.8039 253.83 36.8844C251.135 34.9007 248.032 33.9089 244.523 33.9089C237.511 33.9089 232.817 37.5585 230.441 44.8576C230.404 44.9709 230.368 45.0852 230.332 45.2003H259.018C258.994 45.0853 258.968 44.971 258.941 44.8576Z" fill="white"/>
<path d="M367.918 14.2734H379.82C387.856 14.2734 393.705 14.8838 397.367 16.1045C401.029 17.2743 404.183 19.1308 406.828 21.6739C409.523 24.1661 411.583 27.2179 413.007 30.8291C414.431 34.4403 415.144 38.611 415.144 43.3412C415.144 48.0714 414.075 52.5473 411.939 56.7689C409.854 60.9396 406.853 64.2202 402.937 66.6107C399.071 68.9504 393.4 70.1202 385.923 70.1202H367.918V14.2734ZM374.25 63.8642H380.049C386.508 63.8642 391.213 63.5335 394.163 62.8723C397.113 62.2111 399.681 60.9396 401.868 59.0577C404.056 57.1758 405.709 54.887 406.828 52.1913C407.997 49.4447 408.582 46.2912 408.582 42.7309C408.582 39.1705 407.896 35.8899 406.522 32.889C405.2 29.8373 403.293 27.3705 400.8 25.4886C398.308 23.5558 395.384 22.2842 392.027 21.6739C388.67 21.0127 383.863 20.6821 377.607 20.6821H374.25V63.8642Z" fill="white"/>
<path d="M465.279 70.1202H459.099V64.0167C454.572 69.0012 449.359 71.4935 443.459 71.4935C437.559 71.4935 432.498 69.3318 428.277 65.0086C424.106 60.6344 422.021 55.4464 422.021 49.4447C422.021 43.3921 424.131 38.2296 428.353 33.9571C432.575 29.6338 437.712 27.4722 443.764 27.4722C449.868 27.4722 454.979 29.939 459.099 34.8727V28.5403H465.279V70.1202ZM443.917 65.6189C448.138 65.6189 451.775 64.093 454.827 61.0413C457.878 57.9896 459.404 54.2003 459.404 49.6736C459.404 45.096 457.904 41.2813 454.903 38.2296C451.902 35.127 448.215 33.5757 443.84 33.5757C439.517 33.5757 435.855 35.1778 432.854 38.3822C429.853 41.5356 428.353 45.274 428.353 49.5973C428.353 53.9206 429.879 57.6844 432.931 60.8887C435.982 64.0422 439.644 65.6189 443.917 65.6189Z" fill="white"/>
<path d="M511.407 28.5403L486.764 84.8448H480.203L488.214 66.5344L471.353 28.5403H477.914L491.571 58.9814L504.77 28.5403H511.407Z" fill="white"/>
<path d="M538.501 33.4231L534.458 37.6192C531.457 34.8218 528.71 33.4231 526.218 33.4231C524.641 33.4231 523.319 33.9317 522.251 34.9489C521.183 35.9153 520.649 37.136 520.649 38.611C520.649 40.0352 521.234 41.3067 522.403 42.4257C523.624 43.4938 525.76 44.8417 528.812 46.4693C531.864 48.046 534.203 49.8007 535.831 51.7335C537.51 53.6663 538.349 56.0314 538.349 58.8288C538.349 62.3891 537.103 65.39 534.61 67.8314C532.169 70.2728 529.143 71.4935 525.531 71.4935C520.496 71.4935 516.3 69.3573 512.943 65.0848L516.91 60.6598C519.657 63.8642 522.454 65.4663 525.303 65.4663C527.235 65.4663 528.888 64.8305 530.262 63.559C531.635 62.2874 532.322 60.8124 532.322 59.134C532.322 57.4046 531.686 55.9805 530.414 54.8615C529.194 53.6917 527.057 52.3438 524.006 50.818C521.005 49.2921 518.716 47.6137 517.139 45.7826C515.613 43.9007 514.85 41.4593 514.85 38.4584C514.85 35.4067 515.944 32.8127 518.131 30.6765C520.369 28.5403 523.294 27.4722 526.905 27.4722C530.567 27.4722 534.432 29.4558 538.501 33.4231Z" fill="white"/>
<path fill-rule="evenodd" clip-rule="evenodd" d="M367.592 13.9414H379.836C387.877 13.9414 393.772 14.5506 397.49 15.7894C401.198 16.974 404.396 18.8557 407.079 21.4352C409.814 23.964 411.901 27.0589 413.343 30.7141C414.786 34.3731 415.503 38.5879 415.503 43.352C415.503 48.1359 414.422 52.6647 412.262 56.9342C410.148 61.1608 407.104 64.4897 403.132 66.914L403.131 66.9147C399.187 69.3016 393.443 70.4737 385.94 70.4737H367.592V13.9414ZM406.844 21.6847C404.199 19.1415 401.046 17.2851 397.384 16.1152C393.722 14.8945 387.873 14.2842 379.836 14.2842H367.935V70.131H385.94C393.417 70.131 399.088 68.9611 402.953 66.6215C406.87 64.2309 409.87 60.9503 411.956 56.7796C414.092 52.558 415.16 48.0822 415.16 43.352C415.16 38.6218 414.448 34.4511 413.024 30.8399C411.6 27.2286 409.54 24.1769 406.844 21.6847ZM406.528 52.0706L406.529 52.0677C407.677 49.371 408.256 46.2646 408.256 42.7416C408.256 39.2266 407.578 35.9951 406.227 33.0424L406.226 33.0393L406.224 33.0361C404.924 30.035 403.052 27.6168 400.61 25.7729L400.607 25.7702C398.162 23.8739 395.289 22.6232 391.982 22.0219L391.979 22.0215L391.977 22.021C388.653 21.3662 383.873 21.0356 377.624 21.0356H374.61V63.5321H380.065C386.521 63.5321 391.194 63.201 394.105 62.5486C397.002 61.8991 399.519 60.652 401.662 58.8086C403.807 56.962 405.429 54.7174 406.528 52.0706ZM374.267 63.8749V20.6928H377.624C383.88 20.6928 388.686 21.0234 392.043 21.6847C395.4 22.295 398.325 23.5666 400.817 25.4993C403.309 27.3812 405.217 29.848 406.539 32.8998C407.912 35.9007 408.599 39.1813 408.599 42.7416C408.599 46.302 408.014 49.4554 406.844 52.202C405.725 54.8977 404.072 57.1865 401.885 59.0684C399.698 60.9503 397.129 62.2219 394.179 62.8831C391.229 63.5443 386.525 63.8749 380.065 63.8749H374.267ZM465.638 70.4737H458.773V64.8965C454.33 69.5175 449.227 71.847 443.476 71.847C437.481 71.847 432.332 69.6463 428.048 65.2588L428.045 65.2559C423.814 60.8184 421.694 55.546 421.694 49.4554C421.694 43.3136 423.84 38.0645 428.125 33.7274C432.411 29.3386 437.637 27.1402 443.781 27.1402C449.695 27.1402 454.698 29.4222 458.773 33.9635V28.2083H465.638V70.4737ZM459.116 34.8834C459.002 34.7475 458.888 34.6134 458.773 34.4812C454.714 29.8157 449.716 27.483 443.781 27.483C437.728 27.483 432.591 29.6446 428.37 33.9679C424.148 38.2403 422.037 43.4028 422.037 49.4554C422.037 55.4572 424.123 60.6452 428.293 65.0193C432.515 69.3426 437.576 71.5042 443.476 71.5042C449.227 71.5042 454.326 69.1358 458.773 64.3988C458.888 64.2766 459.002 64.1528 459.116 64.0275V70.131H465.296V28.5511H459.116V34.8834ZM454.675 38.4807L454.673 38.4786C451.738 35.4438 448.14 33.9292 443.857 33.9292C439.63 33.9292 436.058 35.4909 433.121 38.6272L433.119 38.6292C430.179 41.7194 428.712 45.3734 428.712 49.608C428.712 53.8406 430.202 57.5201 433.194 60.6621C436.183 63.7502 439.757 65.2869 443.933 65.2869C448.062 65.2869 451.612 63.7987 454.601 60.8097C457.585 57.8256 459.078 54.1251 459.078 49.6843C459.078 45.1897 457.608 41.4635 454.675 38.4807ZM432.947 60.8995C429.895 57.6951 428.37 53.9313 428.37 49.608C428.37 45.2847 429.87 41.5464 432.871 38.3929C435.872 35.1886 439.534 33.5864 443.857 33.5864C448.231 33.5864 451.919 35.1377 454.92 38.2403C457.92 41.2921 459.421 45.1067 459.421 49.6843C459.421 54.2111 457.895 58.0003 454.843 61.052C451.792 64.1038 448.155 65.6296 443.933 65.6296C439.661 65.6296 435.999 64.0529 432.947 60.8995ZM511.948 28.2083L487.005 85.1984H479.696L487.856 66.5461L470.843 28.2083H478.153L491.582 58.1428L504.561 28.2083H511.948ZM491.588 58.9921L477.931 28.5511H471.37L488.231 66.5452L480.22 84.8556H486.781L511.424 28.5511H504.786L491.588 58.9921ZM539.001 33.4263L534.487 38.1106L534.241 37.8807C531.265 35.1065 528.599 33.7766 526.235 33.7766C524.739 33.7766 523.504 34.2558 522.504 35.2079L522.501 35.2109L522.498 35.2139C521.503 36.1135 521.008 37.241 521.008 38.6218C521.008 39.9371 521.543 41.1208 522.652 42.1835C523.842 43.2231 525.946 44.5537 528.988 46.1765C532.065 47.7662 534.444 49.5455 536.108 51.5216C537.845 53.5223 538.708 55.9688 538.708 58.8395C538.708 62.4893 537.427 65.5787 534.868 68.0858C532.36 70.5938 529.245 71.847 525.548 71.847C520.398 71.847 516.106 69.655 512.69 65.3074L512.512 65.0811L516.933 60.1506L517.187 60.4475C519.901 63.6131 522.611 65.1343 525.319 65.1343C527.169 65.1343 528.738 64.529 530.045 63.3182C531.358 62.1032 531.995 60.7161 531.995 59.1447C531.995 57.5115 531.4 56.182 530.204 55.1296L530.199 55.1248L530.194 55.1198C529.012 53.9873 526.915 52.6581 523.869 51.1353L523.867 51.1343C520.841 49.5956 518.511 47.8924 516.896 46.017L516.893 46.0132L516.89 46.0093C515.303 44.0528 514.524 41.5294 514.524 38.4692C514.524 35.325 515.655 32.6426 517.908 30.4421L517.911 30.4393C520.223 28.2321 523.238 27.1402 526.921 27.1402C530.711 27.1402 534.659 29.1922 538.757 33.1884L539.001 33.4263ZM534.627 67.8422C537.119 65.4008 538.365 62.3999 538.365 58.8395C538.365 56.0421 537.526 53.677 535.848 51.7442C534.22 49.8115 531.88 48.0567 528.829 46.48C525.777 44.8524 523.641 43.5046 522.42 42.4365C521.25 41.3175 520.665 40.0459 520.665 38.6218C520.665 37.1468 521.199 35.9261 522.268 34.9597C523.336 33.9425 524.658 33.4338 526.235 33.4338C528.727 33.4338 531.474 34.8325 534.474 37.63L538.518 33.4338C534.449 29.4666 530.584 27.483 526.921 27.483C523.31 27.483 520.386 28.5511 518.148 30.6873C515.961 32.8235 514.867 35.4175 514.867 38.4692C514.867 41.4701 515.63 43.9115 517.156 45.7934C518.733 47.6244 521.021 49.3029 524.022 50.8287C527.074 52.3546 529.21 53.7024 530.431 54.8723C531.702 55.9913 532.338 57.4154 532.338 59.1447C532.338 60.8232 531.652 62.2982 530.278 63.5697C528.905 64.8413 527.252 65.4771 525.319 65.4771C522.549 65.4771 519.827 63.9618 517.154 60.9313C517.078 60.8456 517.003 60.7587 516.927 60.6706L512.96 65.0956C516.317 69.368 520.513 71.5042 525.548 71.5042C529.159 71.5042 532.186 70.2835 534.627 67.8422Z" fill="white"/>
</svg>
